<?xml version="1.0" encoding="UTF-8"?>
<svg xmlns="http://www.w3.org/2000/svg" xmlns:xlink="http://www.w3.org/1999/xlink" width="22pt" height="30pt" viewBox="0 0 22 30" version="1.1">
<g id="surface1">
<path style=" stroke:none;fill-rule:nonzero;fill:rgb(100%,100%,100%);fill-opacity:1;" d="M 18.359375 20.421875 C 18.84375 19.707031 18.800781 18.136719 17.835938 17.582031 C 17.097656 17.214844 16.261719 17.359375 15.875 17.675781 C 15.246094 18.054688 14.640625 19.265625 14.640625 20.492188 L 16.808594 20.492188 L 16.808594 22.90625 L 12.3125 22.902344 C 12.371094 24.144531 13.050781 25.140625 14.3125 25.695312 C 14.148438 26.21875 13.386719 27.285156 12.34375 27.214844 C 12.136719 28.34375 11.941406 28.976562 11 30.003906 C 10.058594 28.976562 9.863281 28.34375 9.65625 27.214844 C 8.613281 27.285156 7.851562 26.21875 7.6875 25.695312 C 8.949219 25.140625 9.628906 24.144531 9.6875 22.902344 L 5.191406 22.90625 L 5.191406 20.492188 L 7.359375 20.492188 C 7.359375 19.265625 6.753906 18.054688 6.125 17.675781 C 5.738281 17.359375 4.902344 17.214844 4.164062 17.582031 C 3.199219 18.136719 3.15625 19.707031 3.640625 20.421875 C -0.921875 19.578125 -0.46875 15.179688 1.085938 13.582031 C 2.339844 12.292969 3.710938 12.089844 4.765625 12.496094 C 7.164062 13.355469 8.777344 16.21875 8.855469 20.492188 L 10.113281 20.492188 C 10.113281 16.605469 9.433594 15.367188 7.671875 10.484375 C 6.78125 8.179688 7.316406 5.328125 8.902344 2.699219 C 9.472656 1.757812 10.183594 0.910156 11 0 C 11.816406 0.910156 12.527344 1.757812 13.097656 2.699219 C 14.683594 5.328125 15.21875 8.179688 14.332031 10.484375 C 12.566406 15.367188 11.886719 16.605469 11.886719 20.492188 L 13.144531 20.492188 C 13.222656 16.21875 14.835938 13.355469 17.234375 12.496094 C 18.289062 12.089844 19.660156 12.292969 20.914062 13.582031 C 22.46875 15.179688 22.921875 19.578125 18.359375 20.421875 Z M 18.359375 20.421875 "/>
</g>
</svg>
