<?xml version="1.0" encoding="UTF-8" standalone="no"?>
<!-- Created with Inkscape (http://www.inkscape.org/) -->

<svg
   xmlns:dc="http://purl.org/dc/elements/1.1/"
   xmlns:cc="http://creativecommons.org/ns#"
   xmlns:rdf="http://www.w3.org/1999/02/22-rdf-syntax-ns#"
   xmlns:svg="http://www.w3.org/2000/svg"
   xmlns="http://www.w3.org/2000/svg"
   version="1.1"
   width="219"
   height="299.03668"
   id="svg2">
  <metadata
     id="metadata8">
    <rdf:RDF>
      <cc:Work
         rdf:about="">
        <dc:format>image/svg+xml</dc:format>
        <dc:type
           rdf:resource="http://purl.org/dc/dcmitype/StillImage" />
        <dc:title></dc:title>
      </cc:Work>
    </rdf:RDF>
  </metadata>
  <defs
     id="defs6" />
  <g
     transform="translate(-252.20068,-268.10278)"
     id="g3029" />
  <path
     d="m 182.75847,203.5552 c 4.80546,-7.14689 4.39578,-22.79233 -5.21215,-28.31548 -7.35026,-3.67513 -15.65143,-2.2368 -19.52991,0.92698 -6.24382,3.7768 -12.25739,15.85478 -12.25739,28.08525 l 21.56033,-0.0269 -0.006,24.0752 -44.74739,-0.0239 c 0.58611,12.38299 7.3383,22.30191 19.90367,27.82506 -1.61776,5.21816 -9.19529,15.85477 -19.60164,15.1341 -2.05436,11.25565 -4.00707,17.5742 -13.36383,27.80116 -9.36272,-10.22397 -11.31543,-16.54551 -13.36978,-27.80116 -10.40639,0.72067 -17.98389,-9.91594 -19.60168,-15.1341 12.56541,-5.52315 19.31759,-15.44207 19.9037,-27.82506 l -44.75038,0.0239 v -24.0752 l 21.55435,0.0269 c 0,-12.23047 -6.00459,-24.30845 -12.2544,-28.08525 -3.87848,-3.16079 -12.17665,-4.59912 -19.52392,-0.92698 -9.61391,5.52315 -10.02658,21.17158 -5.22112,28.31548 -45.3992696,-8.42975 -40.8958396,-52.27406 -25.42981,-68.19163 12.49961,-12.85846 26.12656,-14.86795 36.63459,-10.81305 23.88083,8.56133 39.94194,37.08913 40.72242,79.70143 h 12.48762 c 0,-38.73681 -6.74019,-51.08691 -24.30247,-99.73969 C 67.50787,81.51957 72.82172,53.09344 88.6346,26.91901 94.29829,17.53832 101.37344,9.06969 109.50416,0 c 8.12476,9.06969 15.19988,17.53832 20.86357,26.91901 15.81291,26.17443 21.12673,54.60056 12.2873,77.59325 -17.57121,48.65278 -24.31144,60.99989 -24.31144,99.73969 h 12.48765 c 0.78049,-42.6123 16.84758,-71.1401 40.72242,-79.70143 10.50803,-4.05191 24.14398,-2.04541 36.63758,10.81305 15.46304,15.91757 19.9665,59.76188 -25.43279,68.19163 z"
     id="path3015"
     style="fill:#ffffff;fill-opacity:1" />
</svg>
