<?xml version="1.0" encoding="UTF-8"?>
<svg xmlns="http://www.w3.org/2000/svg" xmlns:xlink="http://www.w3.org/1999/xlink" width="80pt" height="109pt" viewBox="0 0 80 109" version="1.1">
<g id="surface1">
<path style=" stroke:none;fill-rule:nonzero;fill:rgb(100%,100%,100%);fill-opacity:1;" d="M 66.761719 74.207031 C 68.515625 71.601562 68.367188 65.898438 64.855469 63.882812 C 62.171875 62.542969 59.140625 63.066406 57.722656 64.222656 C 55.441406 65.597656 53.246094 70 53.246094 74.460938 L 61.121094 74.449219 L 61.117188 83.226562 L 44.773438 83.21875 C 44.988281 87.730469 47.453125 91.347656 52.042969 93.363281 C 51.453125 95.261719 48.683594 99.140625 44.882812 98.878906 C 44.132812 102.980469 43.417969 105.285156 40 109.011719 C 36.582031 105.285156 35.867188 102.980469 35.117188 98.878906 C 31.316406 99.140625 28.546875 95.261719 27.957031 93.363281 C 32.546875 91.347656 35.015625 87.730469 35.226562 83.21875 L 18.878906 83.226562 L 18.878906 74.449219 L 26.753906 74.460938 C 26.753906 70 24.5625 65.597656 22.277344 64.222656 C 20.859375 63.070312 17.828125 62.542969 15.144531 63.882812 C 11.632812 65.898438 11.484375 71.601562 13.238281 74.207031 C -3.34375 71.132812 -1.699219 55.148438 3.949219 49.347656 C 8.515625 44.660156 13.492188 43.925781 17.332031 45.40625 C 26.054688 48.527344 31.921875 58.925781 32.207031 74.460938 L 36.769531 74.460938 C 36.769531 60.339844 34.308594 55.835938 27.890625 38.101562 C 24.660156 29.71875 26.601562 19.355469 32.378906 9.8125 C 34.445312 6.394531 37.03125 3.304688 40 0 C 42.96875 3.304688 45.554688 6.394531 47.621094 9.8125 C 53.398438 19.355469 55.339844 29.71875 52.113281 38.101562 C 45.691406 55.835938 43.230469 60.335938 43.230469 74.460938 L 47.792969 74.460938 C 48.078125 58.925781 53.945312 48.527344 62.667969 45.40625 C 66.507812 43.925781 71.488281 44.660156 76.050781 49.347656 C 81.699219 55.148438 83.34375 71.132812 66.761719 74.207031 Z M 66.761719 74.207031 "/>
</g>
</svg>
